<svg xmlns="http://www.w3.org/2000/svg" fill="none" viewBox="0 0 24 24" height="24" width="24"><path fill="#0f0d1f00" d="M19 12.5h-0.5l1.5 -10h-8l0.588 5.879h-2.406L8.5 9.5l-4 6.5 -4 1.5 7 6 2.5 -1h8l1.5 -1.5 -0.5 -1.5 1 -2 -1 -2 1 -1.5 -1 -1.5Z" stroke-width="1"></path><path fill="#e4e4e1" d="M10.5 10.5 9 0.5h7.5l-0.5 2h-4l0.8 8h-2.3Z" stroke-width="1"></path><path fill="#e4e4e1" d="m12.75 10 0.25 2.5h5.5l0.375 -2.5H12.75Z" stroke-width="1"></path><path fill="#e4e4e1" d="m16 6 -1.5 1.5L16 9l1.5 -1.5L16 6Z" stroke-width="1"></path><path stroke="#000000" stroke-linecap="round" stroke-linejoin="round" d="M10.5 10.5 9 0.5h7.5" stroke-width="1"></path><path stroke="#000000" stroke-linecap="round" stroke-linejoin="round" d="M18 22.5h-8l-2.5 1" stroke-width="1"></path><path stroke="#000000" stroke-linecap="round" stroke-linejoin="round" d="M10.5 12.5H19l1 1.5 -1 1.5 1 2 -1 2 0.5 1.5 -1.5 1.5" stroke-width="1"></path><path stroke="#000000" stroke-linecap="round" stroke-linejoin="round" d="m0.5 17.5 4 -1.5 4 -6.5 1.682 -1.121" stroke-width="1"></path><path stroke="#000000" stroke-linecap="round" stroke-linejoin="round" d="m13 12.5 -1 -10h8l-1.5 10" stroke-width="1"></path><path stroke="#000000" stroke-linecap="round" stroke-linejoin="round" d="m16 6 -1.5 1.5L16 9l1.5 -1.5L16 6Z" stroke-width="1"></path></svg>