<svg xmlns="http://www.w3.org/2000/svg" fill="none" viewBox="0 0 14 14"><g id="shipment-return--shipment-return-parcel-shipping-box-arrow"><path id="vector 1240" stroke="#000000" stroke-linecap="round" stroke-linejoin="round" d="M7 9.5h4.5c1.1046 0 2 0.8954 2 2v0c0 1.1046 -0.8954 2 -2 2h-2" stroke-width=".8"></path><path id="vector 1262" stroke="#000000" stroke-linecap="round" stroke-linejoin="round" d="M8.90625 11.4062 7 9.4998l1.90625 -1.90605" stroke-width=".8"></path><path id="Vector 3937" stroke="#000000" stroke-linecap="round" stroke-linejoin="round" d="M2.70015 0.859815 0.5 3.5h11L9.29985 0.859816C9.10985 0.631823 8.82841 0.5 8.53162 0.5H3.46837c-0.29677 0 -0.57822 0.131823 -0.76822 0.359815Z" stroke-width=".8"></path><path id="Vector" stroke="#000000" stroke-linecap="round" stroke-linejoin="round" d="M6 0.5v3" stroke-width=".8"></path><path id="Vector_2" stroke="#000000" stroke-linecap="round" stroke-linejoin="round" d="M11.5 7.5v-4H0.5v6c0 0.26522 0.105357 0.5196 0.292893 0.7071 0.187537 0.1875 0.441887 0.2929 0.707107 0.2929h3.75" stroke-width=".8"></path></g></svg>